<?xml version="1.0" encoding="UTF-8"?>
<svg width="596px" height="206px" viewBox="0 0 596 206" version="1.1" xmlns="http://www.w3.org/2000/svg" xmlns:xlink="http://www.w3.org/1999/xlink">
    <defs>
        <linearGradient x1="48.2422331%" y1="1.3934641%" x2="48.242233%" y2="110.14527%" id="linearGradient-1">
            <stop stop-color="#E8D298" offset="0%"></stop>
            <stop stop-color="#988B65" offset="100%"></stop>
        </linearGradient>
    </defs>
    <g stroke="none" stroke-width="1" fill="none" fill-rule="evenodd">
        <g transform="translate(-203.000000, -373.000000)" fill="url(#linearGradient-1)" fill-rule="nonzero">
            <path d="M236.333328,565.333345 L255.333305,548.333366 C260.999964,543.666705 266.666624,538.666711 271.999951,533.333385 L283.33327,521.3334 L308.666572,495.666764 L325.666551,477.666787 L328.99988,474.66679 C329.666546,475.000123 329.333213,475.666789 328.99988,476.000122 L322.333222,487.000109 C316.333229,496.33343 311.666568,506.333418 308.666572,517.000072 C305.333243,526.666726 309.333238,537.666713 320.99989,532.000053 C327.333216,528.666724 331.999877,523.333397 336.333205,517.666737 C345.333194,505.666752 353.333184,492.666768 361.666507,479.666784 C362.666506,477.666787 364.33317,475.666789 365.666502,473.333459 C366.333168,472.33346 367.333166,471.333461 366.333168,470.000129 C364.999836,469.666797 364.666503,470.666795 363.999837,471.666794 C359.666509,478.00012 355.333181,484.000112 350.999853,490.666771 C346.666525,497.333429 342.333197,504.666753 337.333203,511.333412 C333.666541,515.66674 330.333212,520.000068 325.999884,523.66673 C322.999888,526.333393 319.999891,528.666724 315.999896,529.666723 C312.9999,530.000055 311.666568,529.000057 311.333236,526.333393 C310.999903,524.000063 311.333236,521.666732 311.999901,519.333402 C313.666566,511.000079 316.999895,503.000089 320.99989,495.666764 C321.999889,493.666767 333.666541,473.333459 333.666541,473.666792 C333.999874,473.000126 334.333207,472.000127 333.999874,471.333461 C333.333208,469.666797 331.333211,469.000131 329.666546,470.333462 C323.999887,474.66679 300.666582,499.333427 295.999921,504.000088 C291.33326,508.666748 286.999932,513.666742 282.333271,518.333403 L265.333292,534.333383 C261.999963,537.666713 258.666634,540.666709 254.999972,544.000038 C250.333311,548.333366 245.333317,552.333361 240.666656,556.666689 C234.666663,562.333349 228.000005,567.00001 221.000014,571.666671 C218.33335,573.333335 215.666687,574.333334 212.666691,575.333333 C209.333361,575.999999 207.333364,574.666667 207.000031,571.000005 C206.666698,569.000007 207.000031,567.00001 207.333364,565.000012 C208.333363,559.333353 210.33336,553.666693 213.000023,548.333366 C216.333353,540.333376 220.333348,532.666719 224.666676,524.666729 C227.666672,519.333402 231.000001,514.000075 234.33333,508.666748 C237.999993,502.666756 241.999988,497.000096 245.66665,491.333437 L247.666647,488.000107 C251.333309,483.333446 254.999972,478.666785 258.666634,473.666792 C265.999958,464.666803 273.333282,455.666814 280.99994,446.666825 C291.999926,434.000174 324.999885,401.333547 329.666546,398.000222 C330.666545,397.333552 330.666545,396.666887 330.333212,395.666888 C329.666546,394.666889 328.666547,395.000222 327.999882,395.333555 C326.66655,396.666887 311.666568,410.000203 306.333242,415.33353 C299.999916,421.333523 294.333256,427.333515 288.333264,433.666841 C277.999943,444.666827 267.999956,456.33348 258.666634,468.000132 C252.333308,475.666789 246.999982,484.000112 240.999989,491.666769 C233.666665,501.666757 227.333339,512.666744 221.000014,523.333397 C217.000018,530.333388 213.333356,537.33338 210.33336,545.000037 C193.666714,580.333327 209.000028,589.333316 236.333328,565.333345 Z M377.999984,478.333453 C379.333315,477.333454 381.999979,475.000123 381.999979,474.66679 C381.333313,473.000126 374.999987,478.333453 375.666653,479.000118 C376.333319,479.666784 376.999985,479.666784 377.999984,478.333453 Z M368.333329,510.00008 C376.666652,508.000083 383.33331,503.333422 387.999971,499.000094 C393.666631,493.666767 394.333297,492.666768 394.333297,492.333435 L393.999964,491.666769 C393.666631,491.00011 386.999972,498.333428 381.999979,502.00009 C377.333318,505.000086 366.333331,511.333412 365,506.666751 C363.666668,502.333423 375.666653,486.00011 371.999991,486.00011 C365,498.333428 360.666672,506.000085 364.666667,509.333414 C365.333333,510.00008 366.999997,510.00008 368.333329,510.00008 Z M383.666672,560.666684 C392.333328,557.333355 402.333316,549.333365 409.999973,541.000042 C436.333274,512.666744 448.666592,495.666764 447.666593,496.666763 L451.333255,491.333437 C451.666588,490.666771 450.666589,491.000104 449.999924,491.333437 C445.333263,494.666766 419.999961,526.00006 415.3333,530.666721 C412.333303,533.666718 404.666646,542.000041 401.66665,545.000037 C392.999994,553.000027 385.000004,558.000021 380.00001,558.000021 C376.333355,558.000021 374.000017,555.333358 374.000017,549.333365 C374.000017,546.000036 375.000016,541.000042 376.666681,535.000049 C381.666674,518.00007 391.999995,498.000095 398.999986,483.666779 C403.99998,473.333459 419.999961,445.333493 426.666619,434.000174 L433.66661,423.000187 L439.666603,413.333533 L446.666594,403.666878 C449.333258,400.000216 451.666588,396.666887 460.666577,386.666899 C455.999916,377.333577 427.666618,428.000181 416.999964,444.333494 C411.333305,454.333482 399.333319,477.000121 393.66666,488.666773 C390.999996,493.666767 388.333333,498.666761 386.333335,503.666755 C383.666672,509.000081 381.333342,514.666741 379.000011,520.333401 C377.333355,524.666729 375.333355,529.33339 373.666684,534.000051 C372.666686,537.000047 372.00002,540.000043 371.333355,543.333372 C370.666688,546.000036 370.333355,549.000032 370.333355,551.333363 C370.333355,561.000017 376.666681,564.000014 383.666672,560.666684 Z M457.999987,548.000033 L469.66664,532.000053 C474.666633,525.000062 479.333294,519.000069 484.333288,512.666744 C486.333286,510.666746 489.666615,507.000084 491.666612,504.666753 L495.333275,500.666758 C497.666605,498.333428 499.666603,496.33343 502.333266,494.333433 C502.666599,494.0001 502.999932,493.666767 502.333266,493.666767 C493.999943,498.333428 493.333277,500.000092 480.999959,514.000075 C477.999963,517.666737 474.999966,521.3334 472.333303,525.333395 C469.333307,529.33339 466.33331,532.666719 463.666647,536.666714 C451.333329,555.000025 450.666663,550.000031 454.333325,540.333376 C456.333323,534.000051 458.666653,528.000058 460.999984,522.333398 L466.999976,508.666748 C469.999972,502.00009 472.666636,495.333432 476.666631,489.000106 C479.333294,484.666778 481.666625,480.000117 484.333288,475.666789 C485.66662,473.000126 486.999951,470.333462 488.666616,468.000132 C496.666606,455.000148 499.999935,449.333488 510.666589,435.000173 L514.333251,430.000179 C518.666579,424.000186 523.666573,418.000194 527.999901,412.000201 C528.9999,410.000203 529.666566,410.000203 528.666567,409.000205 C527.666568,408.333539 526.333236,409.333538 524.999905,410.666869 C521.666575,413.333533 518.333246,416.333529 515.33325,419.666858 C510.999922,424.000186 506.666594,428.333514 502.999932,433.000175 L488.666616,451.666819 C486.666619,454.333482 484.999954,457.333478 482.999956,460.000142 C480.333293,463.000138 478.333296,466.333467 475.999965,469.666797 C464.999979,485.666777 475.666632,471.333461 460.333318,479.333451 C455.333324,482.666781 450.666663,488.33344 448.333333,494.333433 C448,495.000099 447.666667,496.000097 447.666667,497.000096 C447.333334,500.000092 449.999997,501.666757 452.666661,500.666758 C454.666658,499.66676 455.99999,498.333428 457.333321,497.000096 C460.999984,493.000101 464.666646,489.000106 467.666642,484.666778 L473.333302,477.000121 C477.999963,470.666795 482.333291,464.33347 486.666619,458.000144 C491.333279,451.333486 495.99994,445.00016 500.666601,438.666835 L505.333262,432.666842 C508.333259,429.00018 511.999921,425.333518 515.33325,422.000189 C520.333244,417.000195 522.333241,414.666864 523.33324,415.000197 C522.666574,416.000196 521.999908,417.000195 521.333242,417.666861 L507.33326,435.666838 C501.333267,443.666829 495.99994,452.666818 490.333281,461.000141 L485.333287,468.333465 L478.999961,479.333451 C476.333298,484.666778 473.666635,490.000105 470.666638,495.333432 L467.666642,501.333424 C463.666647,509.666747 459.999985,518.333403 456.666656,527.000059 C454.333325,532.333386 452.666661,537.666713 450.999996,543.333372 C448,553.000027 451.666662,554.666692 457.999987,548.000033 Z M450.33333,498.666761 C446.666668,495.000099 465.666644,473.666792 468.666641,479.666784 L465.666644,484.000112 C463.333314,486.666776 461.333316,489.666772 458.666653,492.333435 C456.999988,494.0001 454.999991,496.000097 452.999993,497.666762 C452.999993,497.666762 450.999996,499.000094 450.33333,498.666761 Z M551.333358,563.333348 C552.333357,562.666682 553.666688,561.33335 555.00002,559.666686 C556.000019,558.666687 556.666685,557.666688 557.666684,556.333356 C563.666676,548.000033 570.666667,535.333382 575.333328,524.666729 C617.999942,452.333485 574.33333,524.000063 619.99994,451.000153 C628.666596,438.000169 636.999919,425.000185 647.999905,414.000199 C651.333235,410.666869 654.999897,407.33354 658.999892,404.666877 C659.622113,404.044655 660.534705,404.003174 661.466654,404.000408 L661.666555,404.000211 C662.666554,404.000211 663.33322,404.000211 663.666553,404.333544 C664.666552,405.00021 665.333217,407.33354 664.999885,408.666872 C664.666552,411.666868 663.999886,414.666864 662.999887,417.333528 C660.333224,426.000184 657.333227,434.66684 653.666565,443.000163 C646.999907,458.66681 639.666582,474.333457 632.666591,490.000105 C628.999929,497.666762 625.6666,505.333419 622.33327,513.333409 C613.999947,532.333386 625.6666,530.000055 637.333252,510.666746 C645.999908,497.666762 667.666548,475.333456 672.333209,476.666788 C674.666539,476.333455 655.666563,527.333392 658.666559,527.333392 L660.333224,526.333393 C661.999888,521.3334 663.33322,516.333406 664.999885,511.000079 C668.666547,501.000091 671.999876,491.000104 675.333205,480.666783 C677.666536,470.666795 671.33321,470.666795 655.666563,484.666778 C646.333241,493.333434 628.999929,516.000073 624.333268,521.666732 C621.999938,521.3334 627.666597,509.000081 629.666595,504.666753 C635.333254,492.000102 641.333247,479.666784 646.999907,467.000133 C654.666564,450.66682 661.999888,434.333507 666.333216,417.000195 C667.333215,413.666866 667.999881,410.000203 667.666548,406.333541 C667.666548,401.66688 663.33322,399.33355 659.333225,401.66688 C655.999896,403.333545 652.666566,405.666875 649.999903,408.000206 C642.333246,414.333531 636.666586,422.333522 630.999926,430.333512 C625.333267,438.000169 620.333273,446.000159 614.999946,454.000149 C607.333289,466.000134 599.333299,477.666787 591.999975,490.000105 C581.666654,506.000085 554.666687,556.666689 552.333357,556.666689 C551.000025,556.666689 557.000018,542.333374 560.000014,535.666715 L600.333298,448.33349 C623.666602,397.000219 627.99993,387.000232 633.333257,378.000243 C634.999921,374.666914 633.999923,372.666916 632.999924,374.333581 C632.333258,375.666912 631.666592,376.666911 630.999926,377.66691 C613.333282,408.333539 576.999993,491.000104 568.333337,509.333414 C564.333342,519.000069 552.66669,543.666705 548.666695,555.333358 C547.333363,558.333354 546.666697,562.666682 548.333362,563.666681 C549.000028,564.333346 550.000026,564.000014 551.333358,563.333348 Z M681.999996,506.333418 C685.999991,504.000088 688.333322,502.00009 690.666652,500.000092 L698.666642,493.000101 C699.666641,492.000102 700.999973,491.000104 702.333305,490.000105 C709.666629,485.666783 704.999968,491.000104 702.99997,498.666761 C702.666637,503.000089 702.666637,505.666752 707.666631,505.666752 C710.999961,505.666752 716.66662,502.00009 719.333284,497.666762 C720.333282,496.33343 718.666618,497.000096 717.999952,498.000095 C715.999954,500.666758 713.666624,502.333423 710.666628,503.666755 C709.666629,504.000088 708.333297,504.33342 707.333298,504.33342 C705.999967,504.33342 705.333301,504.000088 704.666635,502.666756 C703.999969,500.666758 705.999967,493.000101 707.999964,489.666772 C708.66663,488.33344 708.999963,487.333441 707.999964,486.00011 C707.666631,485.666783 706.666633,486.333443 706.3333,486.333443 C704.999968,486.666783 706.3333,483.666783 704.999968,482.333448 C703.999969,481.333449 702.666637,480.666783 701.333306,480.666783 C699.333308,480.666783 697.666644,481.000116 696.333312,481.666783 C687.333323,485.000111 677.333335,498.000095 677.333335,504.000088 C677.666668,506.000085 679.999999,507.333417 681.999996,506.333418 Z M679.666666,504.33342 C678.000001,503.333422 680.666665,498.666761 682.666662,496.000097 L685.333326,492.666768 C687.666656,489.666772 690.666652,487.000109 693.999982,485.000111 C697.666644,482.333448 702.99997,480.666783 704.333302,484.666778 C704.666635,486.00011 703.666636,487.333441 702.666637,488.000107 L697.333311,492.000102 C685.999991,500.333425 685.666658,501.333424 682.666662,503.333422 C682.666662,503.333422 680.333332,504.666753 679.666666,504.33342 Z M722.666661,500.333425 C733.666647,490.666771 736.33331,487.333441 737.666642,494.666766 C738.666641,500.333425 743.333302,499.333427 749.333294,497.666762 C754.333288,496.000097 758.333283,494.333433 762.999944,492.333435 C763.999943,492.000102 764.666609,491.333437 764.666609,491.333437 C764.333276,491.000104 763.999943,491.000104 763.999943,491.000104 C745.333299,497.000096 740.999971,500.666758 738.999974,494.0001 L737.999975,490.666771 C737.333309,489.000106 735.666644,488.666773 734.333313,489.333439 C730.999984,490.333438 723.999992,496.33343 721.999995,498.666761 C715.666669,504.33342 726.666656,482.000115 731.333316,481.000116 C731.666649,481.000116 731.999982,480.33345 731.666649,479.666784 C729.333319,477.333454 720.999996,491.333437 718.333333,497.333429 C717.000001,502.00009 719.333331,503.000089 722.666661,500.333425 Z M776.99998,504.000088 C781.333308,501.666757 785.666636,498.333428 789.666631,496.000097 L795.666624,491.666769 C796.999955,490.333438 798.333287,489.000106 798.66662,488.000107 L798.66662,487.333441 C798.66662,487.000109 797.999954,487.000109 797.666621,487.333441 L796.666622,488.666773 C794.666625,490.333438 792.666627,492.000102 790.66663,493.333434 C773.999984,504.666753 765.666661,507.000084 762.999997,502.00009 C762.333331,500.000092 762.999997,498.333428 763.666663,496.33343 C767.333325,497.666762 777.666646,488.000107 778.999977,483.333446 C781.666641,475.666789 768.99999,480.33345 763.666663,491.000104 C762.333331,493.333434 761.666665,495.666764 760.666667,498.333428 C758.333336,508.000083 768.666657,508.666748 776.99998,504.000088 Z M764.666662,495.000099 C764.999995,492.666768 765.999993,491.333437 766.999992,490.000105 C768.99999,487.000109 773.999984,481.333449 776.666647,481.666782 C778.999977,484.333445 765.999993,495.666764 764.666662,495.000099 Z" id="WildMane"></path>
        </g>
    </g>
</svg>